<?xml version="1.0" encoding="UTF-8"?>
<svg width="42px" height="39px" viewBox="0 0 42 39" version="1.1" xmlns="http://www.w3.org/2000/svg" xmlns:xlink="http://www.w3.org/1999/xlink">
    <!-- Generator: Sketch 51.3 (57544) - http://www.bohemiancoding.com/sketch -->
    <title>cart-icon</title>
    <desc>Created with Sketch.</desc>
    <defs></defs>
    <g id="Page-1" stroke="none" stroke-width="1" fill="none" fill-rule="evenodd">
        <g id="inicio-yellow-home-copy" transform="translate(-1174.000000, -46.000000)" fill="#2A1400" stroke="#281502">
            <g id="cart-icon" transform="translate(1175.000000, 47.000000)">
                <path d="M36.140185,33.8216857 C36.0270443,34.7847535 35.2034605,35.5064576 34.2330559,35.4932923 L5.74981888,35.4932923 C4.77910597,35.5064576 3.95583044,34.7847535 3.84268979,33.8216857 L1.30696724,11.7237888 L13.060185,11.7237888 L13.060185,16.4692976 C13.060185,16.8091314 13.3360231,17.0846785 13.6762158,17.0846785 C14.0164085,17.0846785 14.2922466,16.8091314 14.2922466,16.4692976 L14.2922466,11.7237888 L24.5339422,11.7237888 L24.5339422,16.4692976 C24.5339422,16.8091314 24.8097033,17.0846785 25.149896,17.0846785 C25.4900886,17.0846785 25.7660809,16.8091314 25.7660809,16.4692976 L25.7660809,11.7237888 L38.6759075,11.7237888 L36.140185,33.8216857 Z M14.2922466,6.68795076 C14.2922466,3.7212956 16.5840385,1.3078135 19.4130944,1.3078135 C22.2424586,1.3078135 24.5339422,3.7212956 24.5339422,6.68795076 L24.5339422,10.4929499 L14.2922466,10.4929499 L14.2922466,6.68795076 Z M39.3665434,10.4929499 L25.7660809,10.4929499 L25.7660809,6.68795076 C25.7660809,3.04278285 22.9219191,0.0769745886 19.4130944,0.0769745886 C15.904501,0.0769745886 13.060185,3.04278285 13.060185,6.68795076 L13.060185,10.4929499 L0.616331407,10.4929499 C0.442458574,10.4875606 0.274597303,10.5581604 0.156986513,10.6865027 C0.0393757225,10.814768 -0.0162697495,10.9878415 0.00415414258,11.160684 L2.61872062,33.9529536 C2.80222736,35.5392553 4.15128324,36.7329851 5.74981888,36.7240542 L34.2330559,36.7240542 C35.832131,36.7318302 37.1809557,35.5364837 37.3641541,33.9496431 L39.978104,11.1468258 C39.9979884,10.9776788 39.9422659,10.8079159 39.8258882,10.6831921 C39.7073526,10.5566976 39.5397996,10.4872526 39.3665434,10.4929499 Z" id="Fill-1"></path>
                <path d="M25.8233124,20.8103975 C24.2078155,20.8134055 22.8672809,22.0502691 22.7477967,23.6481517 L16.0234359,23.6481517 C15.8941092,21.9593474 14.4089118,20.6942766 12.7061479,20.8225431 C11.003384,20.9508096 9.7277989,22.423831 9.85712564,24.1126354 C9.91177477,24.8263305 10.2164365,25.4985945 10.7182357,26.0129091 C9.52934531,27.2294544 9.55984582,29.1714431 10.786447,30.3507002 C12.0129909,31.5297871 13.9710893,31.4995367 15.1600369,30.2830482 C15.6636672,29.7676553 15.9691873,29.0934616 16.0234359,28.37778 L22.7477967,28.37778 C22.8771807,30.0665843 24.3623781,31.3315984 26.0651992,31.2033319 C27.7679059,31.0749519 29.0433765,29.6018737 28.9140498,27.9130693 C28.8594006,27.1994309 28.5547389,26.5272804 28.0529397,26.0129091 C29.2409717,24.7945477 29.2081823,22.8516509 27.9798072,21.6733586 C27.4013847,21.1185776 26.6279422,20.8090921 25.8233124,20.8103975 M25.8233124,21.7563912 C27.0055076,21.75344 27.9663022,22.7015904 27.9692207,23.8741505 C27.9705941,24.4275126 27.7540576,24.9595347 27.3657913,25.3568771 C27.0103144,25.7232312 27.0103144,26.3026438 27.3657913,26.6689411 C28.1894195,27.5090299 28.170421,28.8522525 27.3233881,29.6691852 C26.476298,30.4860044 25.1219724,30.4671617 24.2983442,29.6270729 C23.9480748,29.2697997 23.7358301,28.8016837 23.6986916,28.3047362 C23.6601797,27.8121021 23.2459336,27.431843 22.7477967,27.4318997 L16.0234359,27.4318997 C15.5252418,27.4318997 15.1109957,27.8121021 15.072541,28.3047362 C14.9838435,29.4726991 13.9572982,30.3482598 12.779681,30.2602326 C11.6020638,30.1722623 10.7193802,29.1541895 10.8080205,27.9862267 C10.8456168,27.4913223 11.0570603,27.0251928 11.4053841,26.6689411 C11.760861,26.3026438 11.760861,25.7232879 11.4053841,25.3569338 C10.5817559,24.5168451 10.6007544,23.1736225 11.4478445,22.3566898 C12.2948774,21.5398706 13.649203,21.5586565 14.4728312,22.3987453 C14.8231579,22.7560186 15.0354025,23.224248 15.072541,23.7211955 C15.1109957,24.2138297 15.5252418,24.5940887 16.0234359,24.5941455 L22.7477967,24.5941455 C23.2459336,24.5940887 23.6601797,24.2138297 23.6986344,23.7211955 C23.7855007,22.6186712 24.7082985,21.765245 25.8233124,21.7563912" id="Fill-4"></path>
            </g>
        </g>
    </g>
</svg>