<?xml version="1.0" encoding="UTF-8"?>
<svg width="31px" height="32px" viewBox="0 0 31 32" version="1.1" xmlns="http://www.w3.org/2000/svg" xmlns:xlink="http://www.w3.org/1999/xlink">
    <!-- Generator: Sketch 51.3 (57544) - http://www.bohemiancoding.com/sketch -->
    <title>search-icon</title>
    <desc>Created with Sketch.</desc>
    <defs></defs>
    <g id="Page-1" stroke="none" stroke-width="1" fill="none" fill-rule="evenodd">
        <g id="inicio-yellow-home-copy" transform="translate(-992.000000, -50.000000)" fill="#2A1401" fill-rule="nonzero">
            <g id="search-icon" transform="translate(992.000000, 50.000000)">
                <path d="M12.4854778,0.432436757 C5.60527749,0.432436757 -4.73611111e-06,6.06210595 -4.73611111e-06,12.9723459 C-4.73611111e-06,19.88256 5.60526888,25.5122681 12.4854778,25.5122681 C15.4611075,25.5122681 18.1943517,24.4557924 20.3427205,22.701587 L28.7919514,31.1876411 C29.2963085,31.6941924 30.1173305,31.6942357 30.6217178,31.1876411 C31.1261007,30.6810465 31.1261007,29.8699762 30.6217178,29.3634249 L22.1724912,20.8773708 C23.9226092,18.7185384 24.9709603,15.9642897 24.9709603,12.9723459 C24.9709603,6.06210595 19.3656823,0.432436757 12.4854778,0.432436757 Z M12.4854778,3.02690162 C17.969606,3.02690162 22.3877561,7.46427243 22.3877561,12.9723459 C22.3877561,18.4803546 17.9695973,22.9178032 12.4854778,22.9178032 C7.00135818,22.9178032 2.58319943,18.4803546 2.58319943,12.9723459 C2.58319943,7.46427243 7.00134957,3.02690162 12.4854778,3.02690162 Z" id="Shape"></path>
            </g>
        </g>
    </g>
</svg>